<!-- Generator: Adobe Illustrator 24.3.0, SVG Export Plug-In  -->
<svg version="1.1" xmlns="http://www.w3.org/2000/svg" xmlns:xlink="http://www.w3.org/1999/xlink" x="0px" y="0px" width="89.66px"
	 height="85.5px" viewBox="0 0 89.66 85.5" style="overflow:visible;enable-background:new 0 0 89.66 85.5;" xml:space="preserve">
<style type="text/css">
	.st0{
        fill:#808080;
        opacity: 0.5;
    }

</style>
<defs>
</defs>
<path class="st0" d="M31.24,24.56L42.7,1.32c0.87-1.76,3.38-1.76,4.25,0l11.47,23.24c0.69,1.4,2.02,2.36,3.56,2.59l25.64,3.73
	c1.95,0.28,2.72,2.67,1.31,4.05L70.39,53c-1.11,1.09-1.62,2.65-1.36,4.18l4.38,25.54c0.33,1.94-1.7,3.42-3.44,2.5L47.03,73.17
	c-1.38-0.72-3.02-0.72-4.4,0L19.7,85.23c-1.74,0.91-3.77-0.56-3.44-2.5l4.38-25.54c0.26-1.53-0.25-3.1-1.36-4.18L0.72,34.92
	c-1.41-1.37-0.63-3.76,1.31-4.05l25.64-3.73C29.22,26.92,30.55,25.95,31.24,24.56z"/>
</svg>
